<?xml version="1.0" standalone="no"?>
<!DOCTYPE svg PUBLIC "-//W3C//DTD SVG 20010904//EN"
 "http://www.w3.org/TR/2001/REC-SVG-20010904/DTD/svg10.dtd">
<svg version="1.0" xmlns="http://www.w3.org/2000/svg"
 width="205.000000pt" height="204.000000pt" viewBox="0 0 205.000000 204.000000"
 preserveAspectRatio="xMidYMid meet">

<g transform="translate(0.000000,204.000000) scale(0.100000,-0.100000)"
fill="#000000" stroke="none">
<path d="M937 1662 c-48 -26 -87 -49 -87 -52 0 -3 79 -4 176 -2 97 2 175 4
173 6 -2 2 -42 24 -89 49 l-85 46 -88 -47z"/>
<path d="M580 1589 c-123 -93 -170 -132 -167 -136 2 -1 26 4 53 12 46 14 50
14 65 -4 16 -19 17 -19 53 6 31 20 37 29 32 49 -7 28 16 79 39 88 8 3 35 3 59
0 27 -4 46 -2 50 5 5 7 -9 11 -43 11 -27 0 -53 5 -56 10 -9 15 -15 13 -85 -41z"/>
<path d="M1380 1630 c0 -5 -26 -11 -57 -12 l-58 -1 68 -6 c55 -5 72 -10 85
-28 66 -87 84 -114 79 -119 -2 -3 -15 9 -27 25 -23 33 -40 40 -40 16 0 -8 16
-25 36 -39 l37 -25 16 21 c15 18 21 19 56 9 22 -6 44 -11 49 -11 18 0 -30 42
-99 88 -38 25 -83 56 -98 69 -30 25 -47 29 -47 13z"/>
<path d="M666 1575 c-12 -9 -14 -15 -7 -15 14 0 6 -76 -10 -96 -19 -23 -150
-93 -164 -87 -8 3 -15 1 -15 -5 0 -6 6 -13 13 -15 7 -3 5 -6 -5 -6 -10 -1 -18
-8 -18 -17 0 -37 33 -220 41 -230 6 -8 4 -14 -5 -17 -8 -3 -42 15 -78 41 -129
97 -168 123 -168 114 0 -5 29 -41 65 -80 52 -56 62 -71 48 -74 -13 -3 -2 -13
37 -36 30 -17 60 -33 65 -36 6 -2 7 -7 3 -11 -13 -14 -53 5 -125 60 -40 30
-73 51 -73 46 0 -4 9 -16 20 -26 11 -10 17 -21 14 -26 -7 -12 32 -34 94 -54
29 -9 51 -19 48 -22 -3 -3 -19 -1 -35 5 -40 14 -39 9 2 -17 l32 -21 -28 0
c-34 0 -63 14 -99 48 -35 32 -50 21 -17 -14 38 -41 77 -57 124 -51 44 4 80 -7
70 -24 -15 -24 -99 -6 -157 34 -32 21 -38 9 -9 -17 11 -10 18 -23 15 -30 -3
-7 7 -23 21 -36 14 -13 25 -29 25 -36 0 -7 28 -41 62 -74 54 -53 61 -63 46
-71 -15 -8 -12 -14 22 -47 173 -166 206 -185 245 -142 11 12 13 20 6 20 -8 0
-6 8 5 25 28 43 1 75 -75 90 -13 2 -40 15 -60 28 -20 13 -53 35 -73 48 -21 13
-38 27 -38 31 0 9 40 21 47 14 4 -3 -1 -6 -10 -6 -50 0 22 -45 143 -90 125
-46 322 -63 456 -39 82 14 219 57 277 86 52 26 64 49 20 39 -21 -5 -24 -4 -13
4 18 12 31 12 49 1 20 -13 -39 -71 -106 -105 -28 -14 -54 -30 -58 -36 -9 -15
6 -12 24 4 9 7 26 17 39 20 19 6 22 4 22 -17 0 -14 -10 -32 -22 -41 l-23 -17
29 6 c36 8 77 35 130 87 27 26 35 38 24 38 -9 0 -20 5 -24 12 -4 7 -3 8 4 4 7
-4 12 -1 12 8 0 8 18 29 40 46 22 17 38 36 35 40 -3 5 4 11 15 15 38 12 20 23
-22 13 -23 -5 -53 -6 -66 -3 -13 3 -31 0 -40 -7 -14 -12 -14 -10 -3 10 12 22
16 23 75 17 58 -6 64 -5 94 20 41 34 42 53 1 24 -18 -12 -50 -23 -77 -25 -52
-4 -47 1 10 11 37 6 145 81 134 92 -3 4 -14 -1 -24 -10 -10 -9 -39 -25 -64
-37 -36 -16 -54 -18 -85 -11 l-38 8 37 17 c22 9 49 13 66 10 33 -7 64 6 105
44 43 41 32 44 -24 6 -28 -19 -63 -34 -77 -34 -26 0 -26 0 9 26 19 15 25 23
14 19 -11 -5 -36 -9 -55 -9 -59 -2 -48 25 25 63 36 18 64 36 61 38 -2 2 -18
-3 -36 -12 -21 -11 -8 6 45 56 73 70 102 106 92 115 -2 3 -17 -6 -33 -19 -66
-56 -187 -137 -195 -131 -5 3 -9 2 -8 -3 1 -4 -1 -15 -4 -23 -4 -8 -18 -53
-33 -100 -32 -105 -81 -200 -99 -194 -10 4 -4 25 20 82 19 42 48 125 66 184
23 75 36 105 46 101 7 -3 13 -1 13 3 1 22 29 181 35 197 6 14 4 16 -11 10 -13
-5 -16 -3 -11 10 4 11 2 14 -7 11 -13 -5 -99 37 -157 78 -26 17 -45 76 -41
123 1 12 -1 15 -5 9 -10 -15 -144 -19 -451 -16 -152 1 -231 5 -227 12 9 15 -7
12 -29 -5z m554 -34 c0 -4 27 -11 60 -15 48 -6 60 -10 59 -24 0 -10 -3 -12 -6
-4 -3 7 -24 12 -56 11 -56 -1 -54 -4 6 -14 30 -5 37 -10 37 -28 0 -48 13 -64
86 -107 41 -24 74 -47 74 -51 0 -4 -30 10 -67 32 l-68 39 -44 -16 c-24 -8 -50
-13 -58 -10 -7 3 -13 1 -13 -4 0 -7 -7 -7 -20 0 -75 38 -71 38 -60 1 4 -16 6
-32 4 -34 -7 -6 96 -97 124 -110 12 -6 22 -14 22 -19 0 -11 -77 -11 -84 0 -3
5 -19 7 -36 4 -21 -3 -37 1 -48 13 -9 9 -32 25 -49 36 -41 23 -44 55 -7 69 18
7 24 15 20 26 -3 9 -6 20 -6 26 0 6 -12 8 -26 5 -17 -3 -41 4 -68 19 -50 29
-96 31 -127 4 l-24 -20 44 3 c38 2 47 -1 57 -22 16 -30 34 -42 57 -35 20 6 35
-22 19 -38 -7 -7 -30 0 -75 26 -36 20 -70 36 -77 36 -8 0 -11 -25 -8 -83 l3
-84 -70 14 c-87 16 -90 16 -75 -1 6 -8 18 -12 26 -9 9 3 29 -10 52 -34 36 -38
94 -68 107 -55 3 4 9 1 13 -5 7 -12 145 -55 217 -69 l38 -7 -33 37 c-41 45
-79 106 -79 126 0 8 8 -1 19 -20 22 -41 106 -141 129 -154 28 -15 62 -50 77
-77 11 -21 11 -32 1 -53 -16 -34 -23 -33 -31 5 -9 44 -42 86 -85 109 -40 20
-290 95 -296 88 -3 -2 64 -25 147 -52 121 -38 157 -53 180 -78 15 -16 28 -38
28 -47 0 -13 -4 -12 -18 6 -14 17 -24 21 -53 17 -27 -4 -38 -1 -42 10 -4 9
-17 16 -29 15 l-23 0 23 -9 c12 -5 22 -14 22 -20 0 -13 -17 -13 -25 0 -3 6
-18 10 -32 10 -15 0 -42 6 -61 13 -30 10 -36 10 -40 -2 -3 -10 -13 -4 -34 20
l-29 34 27 -45 c15 -25 35 -57 46 -72 11 -16 17 -28 15 -28 -3 0 -31 34 -62
75 -31 41 -71 87 -90 102 -18 15 -55 55 -81 90 l-48 64 -17 -33 c-20 -39 -18
-44 11 -28 20 11 27 7 69 -41 25 -30 60 -67 77 -84 17 -16 55 -64 85 -105 30
-41 57 -76 61 -78 11 -5 10 -22 -1 -22 -5 0 -34 -11 -66 -25 l-58 -26 22 -23
c11 -12 21 -28 21 -34 0 -12 37 -10 125 9 37 7 55 5 44 -6 -3 -2 -41 -10 -85
-16 -43 -7 -82 -16 -86 -22 -4 -6 -25 1 -55 18 -69 40 -203 137 -203 147 0 5
-12 27 -27 49 -22 33 -28 38 -33 24 -5 -13 -12 -5 -28 32 -36 84 -47 137 -35
174 l10 34 12 -45 c21 -78 20 -77 42 -50 11 14 40 67 66 118 26 50 49 92 52
92 4 0 37 -8 74 -19 l67 -18 0 83 c0 46 0 86 0 89 -1 16 33 64 54 79 42 27
124 21 177 -12 l44 -28 -1 36 c0 20 -4 41 -7 47 -4 6 -1 13 5 16 8 3 3 9 -12
15 -22 9 -17 11 33 11 36 1 56 5 52 11 -3 6 3 10 14 10 12 0 21 -4 21 -9z
m218 -163 c45 -27 82 -53 82 -58 0 -5 -25 6 -56 26 -31 20 -71 42 -90 50 -29
12 -34 19 -33 47 1 29 2 30 8 8 4 -17 32 -40 89 -73z m-89 -53 l0 -20 -9 20
c-5 11 -9 27 -9 35 -1 13 0 13 9 0 5 -8 9 -24 9 -35z m-374 25 c3 -5 1 -10 -4
-10 -6 0 -11 5 -11 10 0 6 2 10 4 10 3 0 8 -4 11 -10z m428 -27 c-7 -2 -21 -2
-30 0 -10 3 -4 5 12 5 17 0 24 -2 18 -5z m104 -85 c-2 -13 -4 -3 -4 22 0 25 2
35 4 23 2 -13 2 -33 0 -45z m-462 12 c4 -6 21 -17 38 -24 18 -8 25 -15 17 -15
-8 -1 -28 8 -45 19 l-30 20 -6 -23 c-6 -20 -7 -21 -14 -3 -11 25 26 49 40 26z
m-72 -131 c23 -12 37 -28 37 -42 0 -11 -54 18 -69 37 -16 20 0 22 32 5z m293
-135 c24 -24 44 -49 44 -56 0 -6 -14 7 -31 30 -17 23 -34 42 -37 42 -4 1 -20
12 -37 26 -24 21 -25 23 -6 14 13 -7 43 -32 67 -56z m-880 -100 c13 -9 39 -20
57 -24 24 -6 26 -8 9 -9 -22 -1 -102 34 -102 44 0 9 10 5 36 -11z m797 9 c-7
-2 -19 -2 -25 0 -7 3 -2 5 12 5 14 0 19 -2 13 -5z m-676 -70 c-8 -7 -88 -6
-95 2 -3 3 19 5 48 5 29 0 50 -3 47 -7z m1046 -30 c-7 -2 -19 -2 -25 0 -7 3
-2 5 12 5 14 0 19 -2 13 -5z m-263 -33 c-22 -42 -146 -111 -198 -110 -9 1 7 9
36 19 29 10 68 33 86 50 18 17 35 29 38 26 2 -3 13 4 23 15 23 25 29 26 15 0z
m-616 -150 c46 -21 63 -37 26 -25 -14 5 -20 2 -20 -10 0 -14 -4 -13 -30 5 -16
12 -30 28 -30 36 0 18 -1 18 54 -6z m91 -40 c3 -5 1 -10 -4 -10 -6 0 -11 5
-11 10 0 6 2 10 4 10 3 0 8 -4 11 -10z"/>
<path d="M1262 1469 c10 -5 24 -19 33 -32 15 -21 15 -21 15 11 0 30 -2 32 -32
32 -27 -1 -30 -2 -16 -11z"/>
<path d="M1110 1329 c0 -4 7 -9 15 -13 9 -3 15 0 15 8 0 7 -7 13 -15 13 -8 0
-15 -4 -15 -8z"/>
<path d="M587 986 c-7 -18 68 -176 83 -176 6 0 9 -4 6 -9 -7 -11 199 -153 208
-144 11 11 7 20 -31 65 -48 57 -173 248 -173 265 0 19 -86 18 -93 -1z"/>
<path d="M991 966 c2 -1 17 -10 32 -20 27 -16 27 -16 16 1 -6 11 -20 20 -31
20 -11 1 -19 1 -17 -1z"/>
<path d="M817 789 c29 -49 37 -52 82 -29 23 11 41 22 41 24 0 1 -12 3 -27 4
-16 0 -47 8 -71 16 l-43 15 18 -30z"/>
<path d="M1781 1157 c-13 -21 -12 -21 5 -5 10 10 16 20 13 22 -3 3 -11 -5 -18
-17z"/>
<path d="M270 1145 c13 -14 25 -25 27 -25 2 0 -4 11 -13 25 -9 14 -21 25 -27
25 -6 0 0 -11 13 -25z"/>
<path d="M1695 1054 c-85 -58 -86 -68 -3 -30 67 31 100 57 90 73 -5 8 -32 -5
-87 -43z"/>
<path d="M275 1070 c3 -5 11 -10 16 -10 6 0 7 5 4 10 -3 6 -11 10 -16 10 -6 0
-7 -4 -4 -10z"/>
<path d="M910 576 c0 -7 -3 -28 -6 -45 -4 -18 -2 -31 4 -31 5 0 12 20 14 45 2
25 0 45 -4 45 -5 0 -8 -6 -8 -14z"/>
<path d="M952 565 c-28 -29 -25 -59 6 -63 20 -3 22 1 22 42 0 25 -1 46 -2 46
-2 0 -13 -11 -26 -25z m13 -24 c3 -5 1 -12 -5 -16 -5 -3 -10 1 -10 9 0 18 6
21 15 7z"/>
<path d="M1277 584 c-11 -11 -8 -52 4 -60 6 -3 18 1 27 10 13 12 14 21 6 33
-12 20 -27 26 -37 17z m23 -29 c0 -8 -4 -15 -10 -15 -5 0 -10 7 -10 15 0 8 5
15 10 15 6 0 10 -7 10 -15z"/>
<path d="M803 566 c3 -7 1 -18 -5 -24 -14 -14 -1 -32 23 -32 12 0 19 7 19 19
0 31 -11 51 -27 51 -9 0 -13 -6 -10 -14z"/>
<path d="M1040 550 c0 -20 -5 -30 -15 -30 -8 0 -15 -4 -15 -10 0 -5 9 -10 20
-10 17 0 20 7 20 40 0 22 -2 40 -5 40 -3 0 -5 -13 -5 -30z"/>
<path d="M1223 573 c-7 -2 -13 -18 -13 -34 0 -19 4 -28 11 -24 6 4 8 13 5 21
-3 7 -1 16 4 19 6 4 10 -3 10 -14 0 -12 5 -21 10 -21 11 0 12 6 4 38 -6 23
-10 24 -31 15z"/>
<path d="M1330 564 c0 -8 5 -12 10 -9 6 3 10 10 10 16 0 5 -4 9 -10 9 -5 0
-10 -7 -10 -16z"/>
<path d="M850 548 c0 -28 16 -46 30 -32 14 16 22 54 11 54 -6 0 -11 -8 -11
-17 0 -15 -2 -14 -15 3 -14 18 -14 18 -15 -8z"/>
<path d="M1120 563 c0 -24 21 -66 29 -57 14 15 22 64 11 64 -5 0 -10 -8 -10
-17 0 -15 -2 -14 -15 3 -8 10 -15 14 -15 7z"/>
<path d="M1180 541 c0 -17 5 -31 10 -31 6 0 10 11 10 24 0 14 -4 28 -10 31 -6
4 -10 -7 -10 -24z"/>
<path d="M1067 546 c-7 -19 17 -51 31 -42 20 12 15 56 -7 56 -10 0 -21 -6 -24
-14z m33 -16 c0 -5 -4 -10 -10 -10 -5 0 -10 5 -10 10 0 6 5 10 10 10 6 0 10
-4 10 -10z"/>
<path d="M1351 509 c-24 -17 -40 -33 -37 -36 6 -6 92 42 101 57 13 21 -24 9
-64 -21z"/>
<path d="M807 454 c15 -13 70 -48 121 -79 l94 -56 69 41 c38 22 69 45 69 51 0
6 4 8 9 5 9 -6 26 22 22 37 -1 5 2 6 7 3 4 -2 14 -1 22 5 8 5 11 9 5 9 -5 0
-108 2 -228 4 l-218 2 28 -22z m228 -94 c3 -5 1 -10 -4 -10 -6 0 -11 5 -11 10
0 6 2 10 4 10 3 0 8 -4 11 -10z"/>
</g>
</svg>
